<svg width="13" height="13" viewBox="0 0 13 13" fill="none" xmlns="http://www.w3.org/2000/svg">
<path d="M9.70175 8.12434C9.90672 7.6636 10.021 7.15102 10.021 6.61087C10.021 4.60478 8.44466 2.97852 6.50016 2.97852C4.55563 2.97852 2.97933 4.60478 2.97933 6.61087C2.97933 7.15102 3.09362 7.6636 3.29859 8.12434" stroke="#605F63" stroke-linecap="round"/>
<path d="M6.5 1.08276V1.62443" stroke="#605F63" stroke-linecap="round" stroke-linejoin="round"/>
<path d="M1.08333 6.49951H1.625" stroke="#605F63" stroke-linecap="round" stroke-linejoin="round"/>
<path d="M11.3748 6.49951H11.9165" stroke="#605F63" stroke-linecap="round" stroke-linejoin="round"/>
<path d="M2.67021 2.66919L3.05322 3.05221" stroke="#605F63" stroke-linecap="round" stroke-linejoin="round"/>
<path d="M9.94657 3.0527L10.3296 2.66968" stroke="#605F63" stroke-linecap="round" stroke-linejoin="round"/>
<path d="M5.13611 10.4572C4.58881 10.2802 4.36933 9.77924 4.30758 9.27538C4.28916 9.12491 4.41299 9 4.56466 9L8.40786 9.00011C8.56473 9.00016 8.69071 9.13325 8.67198 9.28903C8.6115 9.79186 8.45886 10.1592 7.87887 10.4572M5.13611 10.4572C5.13611 10.4572 7.7834 10.4572 7.87887 10.4572M5.13611 10.4572C5.20193 11.5108 5.50618 11.928 6.49581 11.9163C7.55433 11.9358 7.79785 11.4201 7.87887 10.4572" stroke="#605F63" stroke-linecap="round" stroke-linejoin="round"/>
</svg>
