<svg width="32" height="32" viewBox="0 0 32 32" fill="none" xmlns="http://www.w3.org/2000/svg">
<rect x="0.5" y="0.5" width="31" height="31" rx="9.5" stroke="#AFAFB1"/>
<path d="M22.25 10.5833L21.7336 18.9375C21.6016 21.0719 21.5357 22.1392 21.0007 22.9065C20.7361 23.2858 20.3956 23.606 20.0006 23.8466C19.2017 24.3333 18.1325 24.3333 15.9939 24.3333C13.8526 24.3333 12.7819 24.3333 11.9825 23.8457C11.5873 23.6047 11.2467 23.2839 10.9822 22.9039C10.4474 22.1354 10.3829 21.0667 10.2538 18.9293L9.75 10.5833" stroke="#AFAFB1" stroke-linecap="round"/>
<path d="M8.5 10.5834H23.5M19.3797 10.5834L18.8109 9.40986C18.433 8.6303 18.244 8.24051 17.9181 7.99742C17.8458 7.9435 17.7693 7.89553 17.6892 7.854C17.3283 7.66675 16.8951 7.66675 16.0287 7.66675C15.1407 7.66675 14.6967 7.66675 14.3297 7.86185C14.2484 7.90509 14.1708 7.955 14.0977 8.01106C13.768 8.264 13.5839 8.66804 13.2155 9.47613L12.7108 10.5834" stroke="#AFAFB1" stroke-linecap="round"/>
<path d="M13.9166 19.75V14.75" stroke="#AFAFB1" stroke-linecap="round"/>
<path d="M18.0834 19.75V14.75" stroke="#AFAFB1" stroke-linecap="round"/>
</svg>
