<svg width="16" height="16" viewBox="0 0 16 16" fill="none" xmlns="http://www.w3.org/2000/svg">
<path d="M4.66659 4.66667H11.1666C12.5711 4.66667 13.2733 4.66667 13.7777 5.00373C13.9961 5.14965 14.1836 5.33715 14.3295 5.55553C14.6666 6.05997 14.6666 6.7622 14.6666 8.16667C14.6666 10.5075 14.6666 11.6778 14.1048 12.5186C13.8617 12.8825 13.5491 13.1951 13.1852 13.4382C12.3444 14 11.1741 14 8.83325 14H7.99992C4.85722 14 3.28587 14 2.30957 13.0237C1.33325 12.0474 1.33325 10.476 1.33325 7.33333V5.29618C1.33325 4.0852 1.33325 3.47971 1.5868 3.02537C1.76753 2.70151 2.03477 2.43428 2.35863 2.25355C2.81296 2 3.41845 2 4.62943 2C5.40527 2 5.79318 2 6.13276 2.12734C6.90805 2.41808 7.22778 3.12239 7.57765 3.82209L7.99992 4.66667" stroke="white" stroke-linecap="round"/>
</svg>
