<svg width="25" height="24" viewBox="0 0 25 24" fill="none" xmlns="http://www.w3.org/2000/svg">
<path d="M4.59998 7C4.59998 5.58579 4.59998 4.87868 5.03932 4.43934C5.47866 4 6.18577 4 7.59998 4C9.01419 4 9.7213 4 10.1606 4.43934C10.6 4.87868 10.6 5.58579 10.6 7V17C10.6 18.4142 10.6 19.1213 10.1606 19.5607C9.7213 20 9.01419 20 7.59998 20C6.18577 20 5.47866 20 5.03932 19.5607C4.59998 19.1213 4.59998 18.4142 4.59998 17V7Z" stroke="white" stroke-width="1.5"/>
<path d="M14.6 7C14.6 5.58579 14.6 4.87868 15.0393 4.43934C15.4787 4 16.1858 4 17.6 4C19.0142 4 19.7213 4 20.1607 4.43934C20.6 4.87868 20.6 5.58579 20.6 7V17C20.6 18.4142 20.6 19.1213 20.1607 19.5607C19.7213 20 19.0142 20 17.6 20C16.1858 20 15.4787 20 15.0393 19.5607C14.6 19.1213 14.6 18.4142 14.6 17V7Z" stroke="white" stroke-width="1.5"/>
</svg>
