<svg width="16" height="12" viewBox="0 0 16 12" fill="none" xmlns="http://www.w3.org/2000/svg">
<path d="M3.99993 5.33331H6.66659M5.33326 3.99998V6.66665M9.99993 5.99998H10.0066M11.9999 4.66665H12.0066M6.9659 1.33331H9.03396C10.7839 1.33331 11.6588 1.33331 12.3456 1.66493C12.9503 1.95691 13.4527 2.4247 13.787 3.00704C14.1667 3.66845 14.2291 4.54118 14.3537 6.28666L14.5178 8.58298C14.5982 9.70893 13.7064 10.6666 12.5776 10.6666C12.0004 10.6666 11.4529 10.4102 11.0834 9.96678L10.8333 9.66665C10.6045 9.39214 10.4901 9.25485 10.3599 9.14394C10.0868 8.91143 9.75626 8.75661 9.40284 8.6957C9.23425 8.66665 9.05557 8.66665 8.69822 8.66665H7.30164C6.94428 8.66665 6.76561 8.66665 6.59702 8.6957C6.24359 8.75661 5.91305 8.91143 5.64 9.14394C5.50975 9.25486 5.39537 9.39212 5.16659 9.66665L4.91649 9.96678C4.54693 10.4102 3.99949 10.6666 3.42223 10.6666C2.29342 10.6666 1.40167 9.70893 1.48209 8.58298L1.64612 6.28666C1.77079 4.54118 1.83313 3.66845 2.21284 3.00704C2.54716 2.4247 3.04956 1.95691 3.65423 1.66493C4.34101 1.33331 5.21597 1.33331 6.9659 1.33331Z" stroke="#AFAFB1" stroke-width="1.6" stroke-linecap="round" stroke-linejoin="round"/>
</svg>
