<svg width="24" height="24" viewBox="0 0 24 24" fill="none" xmlns="http://www.w3.org/2000/svg">
<path fill-rule="evenodd" clip-rule="evenodd" d="M7.79984 4.19978C5.81159 4.19978 4.19978 5.81159 4.19978 7.79984V16.2C4.19978 16.3154 4.20521 16.4296 4.21583 16.5422L5.5765 14.3652C7.08484 11.9518 10.5061 11.7056 12.3444 13.8782L13.895 15.7107C15.2664 13.6393 18.4251 13.6125 19.8001 15.7624V11.9999C19.8001 11.6685 20.0687 11.3999 20.4001 11.3999C20.7315 11.3999 21.0001 11.6685 21.0001 11.9999V16.2C21.0001 18.851 18.851 21.0001 16.2 21.0001H7.79984C5.14883 21.0001 2.99976 18.851 2.99976 16.2V7.79984C2.99976 5.14883 5.14883 2.99976 7.79984 2.99976H11.9999C12.3313 2.99976 12.5999 3.26839 12.5999 3.59977C12.5999 3.93114 12.3313 4.19978 11.9999 4.19978H7.79984ZM19.4539 17.7422L18.9365 16.6732C18.0729 14.8886 15.5442 14.9346 14.7206 16.6864L17.229 19.6509C18.2126 19.358 19.0201 18.656 19.4539 17.7422ZM7.79984 19.8001C6.48039 19.8001 5.3267 19.0902 4.69987 18.0316L4.70859 18.018L6.59409 15.0012C7.6715 13.2774 10.1153 13.1015 11.4283 14.6533L15.7833 19.8001H7.79984ZM13.2003 6.90017C13.2003 6.56879 13.4689 6.30016 13.8003 6.30016H20.4004C20.7318 6.30016 21.0004 6.56879 21.0004 6.90017C21.0004 7.23156 20.7318 7.50018 20.4004 7.50018H13.8003C13.4689 7.50018 13.2003 7.23156 13.2003 6.90017Z" fill="#AFAFB1"/>
</svg>
