<svg width="24" height="24" viewBox="0 0 24 24" fill="none" xmlns="http://www.w3.org/2000/svg">
<path d="M13.2 13.2L14.7 14.7" stroke="#7A7A7D" stroke-linejoin="round"/>
<path d="M14.6599 15.915C14.3132 15.5684 14.3132 15.0064 14.6599 14.6599C15.0064 14.3132 15.5684 14.3132 15.915 14.6599L17.7399 16.4848C18.0866 16.8314 18.0866 17.3934 17.7399 17.7399C17.3934 18.0866 16.8314 18.0866 16.4848 17.7399L14.6599 15.915Z" stroke="#7A7A7D" stroke-linecap="round"/>
<path d="M14.4001 10.2C14.4001 7.88042 12.5196 6 10.2 6C7.88042 6 6 7.88042 6 10.2C6 12.5196 7.88042 14.4001 10.2 14.4001C12.5196 14.4001 14.4001 12.5196 14.4001 10.2Z" stroke="#7A7A7D" stroke-linejoin="round"/>
</svg>
