<svg width="14" height="13" viewBox="0 0 14 13" fill="none" xmlns="http://www.w3.org/2000/svg">
<path d="M8.62467 1.0835L8.91647 2.37893C9.16401 3.47774 10.0221 4.33583 11.1209 4.58335L12.4163 4.87516L11.1209 5.16697C10.0221 5.41449 9.16401 6.27255 8.91647 7.37138L8.62467 8.66683L8.33288 7.37138C8.08534 6.27255 7.22728 5.41449 6.12846 5.16697L4.83301 4.87516L6.12846 4.58335C7.22723 4.33583 8.08534 3.47774 8.33288 2.37894L8.62467 1.0835Z" stroke="#605F63" stroke-linejoin="round"/>
<path d="M4.29134 6.5L4.49978 7.42533C4.67658 8.21015 5.2895 8.8231 6.07435 8.9999L6.99967 9.20833L6.07435 9.41677C5.2895 9.59357 4.67658 10.2065 4.49978 10.9913L4.29134 11.9167L4.0829 10.9913C3.9061 10.2065 3.29318 9.59357 2.50832 9.41677L1.58301 9.20833L2.50832 8.9999C3.29318 8.8231 3.9061 8.2102 4.0829 7.42533L4.29134 6.5Z" stroke="#605F63" stroke-linejoin="round"/>
</svg>
