<svg width="24" height="24" viewBox="0 0 24 24" fill="none" xmlns="http://www.w3.org/2000/svg">
<path d="M8.19915 15.8008L15.8008 8.19915M8.19915 15.8008C7.75558 15.3573 8.19018 13.2652 8.19915 12.6335M8.19915 15.8008C8.64273 16.2444 10.7348 15.8098 11.3665 15.8008M15.8008 8.19915C15.3573 7.75558 13.2652 8.19018 12.6335 8.19916M15.8008 8.19915C16.2444 8.64273 15.8098 10.7348 15.8008 11.3665" stroke="#AFAFB1" stroke-linecap="round" stroke-linejoin="round"/>
<path d="M3 12C3 7.75736 3 5.63604 4.31802 4.31802C5.63604 3 7.75736 3 12 3C16.2426 3 18.3639 3 19.682 4.31802C21 5.63604 21 7.75736 21 12C21 16.2426 21 18.3639 19.682 19.682C18.3639 21 16.2426 21 12 21C7.75736 21 5.63604 21 4.31802 19.682C3 18.3639 3 16.2426 3 12Z" stroke="#AFAFB1"/>
</svg>
