<svg width="30" height="30" viewBox="0 0 30 30" fill="none" xmlns="http://www.w3.org/2000/svg">
<rect width="30" height="30" rx="6" fill="#454449"/>
<path d="M15 12V18M18 15H12" stroke="white" stroke-width="1.5" stroke-linecap="round" stroke-linejoin="round"/>
<path d="M7.875 15C7.875 11.6412 7.875 9.96187 8.91843 8.91843C9.96187 7.875 11.6412 7.875 15 7.875C18.3587 7.875 20.0381 7.875 21.0816 8.91843C22.125 9.96187 22.125 11.6412 22.125 15C22.125 18.3587 22.125 20.0381 21.0816 21.0816C20.0381 22.125 18.3587 22.125 15 22.125C11.6412 22.125 9.96187 22.125 8.91843 21.0816C7.875 20.0381 7.875 18.3587 7.875 15Z" stroke="white" stroke-width="1.5"/>
</svg>
